<?xml version="1.0" encoding="utf-8"?>
<!-- Generator: Adobe Illustrator 16.0.0, SVG Export Plug-In . SVG Version: 6.00 Build 0)  -->
<!DOCTYPE svg PUBLIC "-//W3C//DTD SVG 1.1//EN" "http://www.w3.org/Graphics/SVG/1.1/DTD/svg11.dtd">
<svg version="1.1" id="图层_1" xmlns="http://www.w3.org/2000/svg" xmlns:xlink="http://www.w3.org/1999/xlink" x="0px" y="0px"
	 width="1024px" height="1024px" viewBox="0 0 1024 1024" enable-background="new 0 0 1024 1024" xml:space="preserve">
<path fill="#2C2C2C" d="M512,24.092C242.478,24.092,24.092,242.478,24.092,512c0,269.522,218.385,487.907,487.908,487.907
	c269.523,0,487.908-218.385,487.908-487.907C999.908,242.478,781.521,24.092,512,24.092z M512,64.673
	c246.533,0,447.326,200.559,447.326,447.327c0,109.076-39.172,209.003-104.148,286.646c-46.915-19.234-154.582-56.53-217.917-75.297
	c-5.63-1.642-6.333-2.11-6.333-25.1c0-19,7.74-38.234,15.481-54.655c8.444-17.592,18.062-47.383,21.58-74.124
	c9.853-11.494,23.458-34.012,31.901-77.174c7.506-38.001,3.987-51.84-0.938-64.742c-0.469-1.407-1.172-2.813-1.406-3.987
	c-1.877-8.915,0.703-55.125,7.272-91.014c4.455-24.63-1.175-76.939-34.951-120.335c-21.349-27.445-62.396-60.988-137.227-65.68
	h-41.049c-73.656,4.691-114.471,38.235-136.051,65.68c-34.013,43.396-39.643,95.705-35.187,120.335
	c6.567,35.889,9.148,82.099,7.271,91.014c-0.469,1.643-0.938,2.814-1.407,4.223c-4.926,12.902-8.679,26.74-0.938,64.742
	c8.678,43.162,22.049,65.679,31.9,77.173c3.52,26.741,13.371,56.298,21.58,74.124c6.101,12.901,8.914,30.494,8.914,55.358
	c0,23.224-0.938,23.457-6.099,25.1c-65.915,19.47-170.298,57.002-212.052,75.063C104.081,721.473,64.673,621.311,64.673,512
	C64.673,265.466,265.466,64.673,512,64.673L512,64.673z"/>
</svg>
